<svg id="visual" viewBox="0 0 1920 1080" width="1920" height="1080" xmlns="http://www.w3.org/2000/svg" xmlns:xlink="http://www.w3.org/1999/xlink" version="1.1"><rect x="0" y="0" width="1920" height="1080" fill="#002233"></rect><path d="M0 846L45.7 826.2C91.3 806.3 182.7 766.7 274.2 766.8C365.7 767 457.3 807 548.8 832.2C640.3 857.3 731.7 867.7 823 851.5C914.3 835.3 1005.7 792.7 1097 799.8C1188.3 807 1279.7 864 1371.2 892C1462.7 920 1554.3 919 1645.8 903.8C1737.3 888.7 1828.7 859.3 1874.3 844.7L1920 830L1920 1081L1874.3 1081C1828.7 1081 1737.3 1081 1645.8 1081C1554.3 1081 1462.7 1081 1371.2 1081C1279.7 1081 1188.3 1081 1097 1081C1005.7 1081 914.3 1081 823 1081C731.7 1081 640.3 1081 548.8 1081C457.3 1081 365.7 1081 274.2 1081C182.7 1081 91.3 1081 45.7 1081L0 1081Z" fill="#6600FF" stroke-linecap="round" stroke-linejoin="miter"></path></svg>